<svg width="1440" height="4328" viewBox="0 0 1440 4328" fill="none" xmlns="http://www.w3.org/2000/svg">
<g clip-path="url(#clip0_83_196)">
<rect width="1440" height="4328" fill="url(#paint0_linear_83_196)"/>
<g filter="url(#filter0_f_83_196)">
<circle cx="100" cy="815" r="179" fill="#05DBF3"/>
</g>
<g filter="url(#filter1_f_83_196)">
<circle cx="1156" cy="666" r="52" fill="#FF8792"/>
</g>
<g filter="url(#filter2_f_83_196)">
<circle cx="718" cy="3571" r="121" fill="#DB75FF"/>
</g>
<path d="M679.2 1002V873.2H742.6C752.867 873.2 761.333 875.267 768 879.4C774.667 883.4 779.6 888.867 782.8 895.8C786.133 902.733 787.8 910.533 787.8 919.2C787.8 928 785.933 935.8 782.2 942.6C778.467 949.4 773.133 954.733 766.2 958.6C759.4 962.333 751.267 964.2 741.8 964.2H711.4V1002H679.2ZM711.4 939.4H734.6C741.4 939.4 746.467 937.533 749.8 933.8C753.267 930.067 755 925.133 755 919C755 912.333 753.4 907.2 750.2 903.6C747.133 899.867 742.267 898 735.6 898H711.4V939.4ZM820.489 1002V873.2H884.889C900.089 873.2 911.289 877.2 918.489 885.2C925.689 893.2 929.289 903.933 929.289 917.4C929.289 926.067 927.089 933.667 922.689 940.2C918.289 946.733 912.289 951.6 904.689 954.8C906.556 956.267 908.022 957.933 909.089 959.8C910.289 961.533 911.556 964 912.889 967.2L928.089 1002H894.489L880.089 969.2C878.889 966.4 877.356 964.4 875.489 963.2C873.622 961.867 870.956 961.2 867.489 961.2H852.689V1002H820.489ZM852.689 936.4H876.489C882.756 936.4 887.622 934.867 891.089 931.8C894.689 928.6 896.489 923.8 896.489 917.4C896.489 904.467 890.289 898 877.889 898H852.689V936.4ZM1022.95 1004C1002.02 1004 986.088 998.667 975.155 988C964.221 977.333 958.755 960.733 958.755 938.2C958.755 914.333 964.221 897.2 975.155 886.8C986.088 876.4 1002.02 871.2 1022.95 871.2C1043.89 871.2 1059.82 876.4 1070.75 886.8C1081.69 897.2 1087.15 914.333 1087.15 938.2C1087.15 960.733 1081.69 977.333 1070.75 988C1059.82 998.667 1043.89 1004 1022.95 1004ZM1022.95 976.6C1033.75 976.6 1041.62 973.533 1046.55 967.4C1051.62 961.133 1054.15 951.4 1054.15 938.2C1054.15 923.8 1051.62 913.667 1046.55 907.8C1041.62 901.8 1033.75 898.8 1022.95 898.8C1012.02 898.8 1004.02 901.8 998.955 907.8C994.021 913.667 991.555 923.8 991.555 938.2C991.555 951.4 994.021 961.133 998.955 967.4C1004.02 973.533 1012.02 976.6 1022.95 976.6ZM1145.18 1004C1139.71 1004 1134.44 1003.6 1129.38 1002.8C1124.44 1002.13 1119.84 1001 1115.58 999.4V972.4C1118.78 973.733 1122.38 974.8 1126.38 975.6C1130.38 976.267 1134.44 976.6 1138.58 976.6C1146.44 976.6 1151.98 975.067 1155.18 972C1158.51 968.8 1160.18 963.533 1160.18 956.2V873.2H1192.38V962.2C1192.38 975.667 1188.38 986 1180.38 993.2C1172.38 1000.4 1160.64 1004 1145.18 1004ZM1231.86 1002V873.2H1326.86V898H1264.06V925H1319.46V950.2H1264.06V977.2H1326.86V1002H1231.86ZM1427.41 1004C1404.87 1004 1387.67 998.267 1375.81 986.8C1364.07 975.2 1358.21 959.133 1358.21 938.6C1358.21 917.133 1363.94 900.533 1375.41 888.8C1387.01 877.067 1404.27 871.2 1427.21 871.2C1435.07 871.2 1442.07 871.8 1448.21 873C1454.47 874.2 1460.47 875.8 1466.21 877.8V906C1454.61 901.2 1442.41 898.8 1429.61 898.8C1416.27 898.8 1406.47 902 1400.21 908.4C1394.07 914.8 1391.01 924.867 1391.01 938.6C1391.01 951.667 1394.27 961.267 1400.81 967.4C1407.34 973.533 1417.07 976.6 1430.01 976.6C1436.27 976.6 1442.47 976.067 1448.61 975C1454.74 973.8 1460.67 972 1466.41 969.6V998C1460.81 999.867 1454.87 1001.33 1448.61 1002.4C1442.34 1003.47 1435.27 1004 1427.41 1004ZM1532.52 1002V898H1494.72V873.2H1602.52V898H1564.72V1002H1532.52Z" fill="#E1E1E1" fill-opacity="0.05"/>
<path d="M678.2 1157V1028.2H741.6C751.867 1028.2 760.333 1030.27 767 1034.4C773.667 1038.4 778.6 1043.87 781.8 1050.8C785.133 1057.73 786.8 1065.53 786.8 1074.2C786.8 1083 784.933 1090.8 781.2 1097.6C777.467 1104.4 772.133 1109.73 765.2 1113.6C758.4 1117.33 750.267 1119.2 740.8 1119.2H710.4V1157H678.2ZM710.4 1094.4H733.6C740.4 1094.4 745.467 1092.53 748.8 1088.8C752.267 1085.07 754 1080.13 754 1074C754 1067.33 752.4 1062.2 749.2 1058.6C746.133 1054.87 741.267 1053 734.6 1053H710.4V1094.4ZM819.489 1157V1028.2H883.889C899.089 1028.2 910.289 1032.2 917.489 1040.2C924.689 1048.2 928.289 1058.93 928.289 1072.4C928.289 1081.07 926.089 1088.67 921.689 1095.2C917.289 1101.73 911.289 1106.6 903.689 1109.8C905.556 1111.27 907.022 1112.93 908.089 1114.8C909.289 1116.53 910.556 1119 911.889 1122.2L927.089 1157H893.489L879.089 1124.2C877.889 1121.4 876.356 1119.4 874.489 1118.2C872.622 1116.87 869.956 1116.2 866.489 1116.2H851.689V1157H819.489ZM851.689 1091.4H875.489C881.756 1091.4 886.622 1089.87 890.089 1086.8C893.689 1083.6 895.489 1078.8 895.489 1072.4C895.489 1059.47 889.289 1053 876.889 1053H851.689V1091.4ZM1021.95 1159C1001.02 1159 985.088 1153.67 974.155 1143C963.221 1132.33 957.755 1115.73 957.755 1093.2C957.755 1069.33 963.221 1052.2 974.155 1041.8C985.088 1031.4 1001.02 1026.2 1021.95 1026.2C1042.89 1026.2 1058.82 1031.4 1069.75 1041.8C1080.69 1052.2 1086.15 1069.33 1086.15 1093.2C1086.15 1115.73 1080.69 1132.33 1069.75 1143C1058.82 1153.67 1042.89 1159 1021.95 1159ZM1021.95 1131.6C1032.75 1131.6 1040.62 1128.53 1045.55 1122.4C1050.62 1116.13 1053.15 1106.4 1053.15 1093.2C1053.15 1078.8 1050.62 1068.67 1045.55 1062.8C1040.62 1056.8 1032.75 1053.8 1021.95 1053.8C1011.02 1053.8 1003.02 1056.8 997.955 1062.8C993.021 1068.67 990.555 1078.8 990.555 1093.2C990.555 1106.4 993.021 1116.13 997.955 1122.4C1003.02 1128.53 1011.02 1131.6 1021.95 1131.6ZM1144.18 1159C1138.71 1159 1133.44 1158.6 1128.38 1157.8C1123.44 1157.13 1118.84 1156 1114.58 1154.4V1127.4C1117.78 1128.73 1121.38 1129.8 1125.38 1130.6C1129.38 1131.27 1133.44 1131.6 1137.58 1131.6C1145.44 1131.6 1150.98 1130.07 1154.18 1127C1157.51 1123.8 1159.18 1118.53 1159.18 1111.2V1028.2H1191.38V1117.2C1191.38 1130.67 1187.38 1141 1179.38 1148.2C1171.38 1155.4 1159.64 1159 1144.18 1159ZM1230.86 1157V1028.2H1325.86V1053H1263.06V1080H1318.46V1105.2H1263.06V1132.2H1325.86V1157H1230.86ZM1426.41 1159C1403.87 1159 1386.67 1153.27 1374.81 1141.8C1363.07 1130.2 1357.21 1114.13 1357.21 1093.6C1357.21 1072.13 1362.94 1055.53 1374.41 1043.8C1386.01 1032.07 1403.27 1026.2 1426.21 1026.2C1434.07 1026.2 1441.07 1026.8 1447.21 1028C1453.47 1029.2 1459.47 1030.8 1465.21 1032.8V1061C1453.61 1056.2 1441.41 1053.8 1428.61 1053.8C1415.27 1053.8 1405.47 1057 1399.21 1063.4C1393.07 1069.8 1390.01 1079.87 1390.01 1093.6C1390.01 1106.67 1393.27 1116.27 1399.81 1122.4C1406.34 1128.53 1416.07 1131.6 1429.01 1131.6C1435.27 1131.6 1441.47 1131.07 1447.61 1130C1453.74 1128.8 1459.67 1127 1465.41 1124.6V1153C1459.81 1154.87 1453.87 1156.33 1447.61 1157.4C1441.34 1158.47 1434.27 1159 1426.41 1159ZM1531.52 1157V1053H1493.72V1028.2H1601.52V1053H1563.72V1157H1531.52Z" fill="#E1E1E1" fill-opacity="0.05"/>
<path d="M679.2 1312V1183.2H742.6C752.867 1183.2 761.333 1185.27 768 1189.4C774.667 1193.4 779.6 1198.87 782.8 1205.8C786.133 1212.73 787.8 1220.53 787.8 1229.2C787.8 1238 785.933 1245.8 782.2 1252.6C778.467 1259.4 773.133 1264.73 766.2 1268.6C759.4 1272.33 751.267 1274.2 741.8 1274.2H711.4V1312H679.2ZM711.4 1249.4H734.6C741.4 1249.4 746.467 1247.53 749.8 1243.8C753.267 1240.07 755 1235.13 755 1229C755 1222.33 753.4 1217.2 750.2 1213.6C747.133 1209.87 742.267 1208 735.6 1208H711.4V1249.4ZM820.489 1312V1183.2H884.889C900.089 1183.2 911.289 1187.2 918.489 1195.2C925.689 1203.2 929.289 1213.93 929.289 1227.4C929.289 1236.07 927.089 1243.67 922.689 1250.2C918.289 1256.73 912.289 1261.6 904.689 1264.8C906.556 1266.27 908.022 1267.93 909.089 1269.8C910.289 1271.53 911.556 1274 912.889 1277.2L928.089 1312H894.489L880.089 1279.2C878.889 1276.4 877.356 1274.4 875.489 1273.2C873.622 1271.87 870.956 1271.2 867.489 1271.2H852.689V1312H820.489ZM852.689 1246.4H876.489C882.756 1246.4 887.622 1244.87 891.089 1241.8C894.689 1238.6 896.489 1233.8 896.489 1227.4C896.489 1214.47 890.289 1208 877.889 1208H852.689V1246.4ZM1022.95 1314C1002.02 1314 986.088 1308.67 975.155 1298C964.221 1287.33 958.755 1270.73 958.755 1248.2C958.755 1224.33 964.221 1207.2 975.155 1196.8C986.088 1186.4 1002.02 1181.2 1022.95 1181.2C1043.89 1181.2 1059.82 1186.4 1070.75 1196.8C1081.69 1207.2 1087.15 1224.33 1087.15 1248.2C1087.15 1270.73 1081.69 1287.33 1070.75 1298C1059.82 1308.67 1043.89 1314 1022.95 1314ZM1022.95 1286.6C1033.75 1286.6 1041.62 1283.53 1046.55 1277.4C1051.62 1271.13 1054.15 1261.4 1054.15 1248.2C1054.15 1233.8 1051.62 1223.67 1046.55 1217.8C1041.62 1211.8 1033.75 1208.8 1022.95 1208.8C1012.02 1208.8 1004.02 1211.8 998.955 1217.8C994.021 1223.67 991.555 1233.8 991.555 1248.2C991.555 1261.4 994.021 1271.13 998.955 1277.4C1004.02 1283.53 1012.02 1286.6 1022.95 1286.6ZM1145.18 1314C1139.71 1314 1134.44 1313.6 1129.38 1312.8C1124.44 1312.13 1119.84 1311 1115.58 1309.4V1282.4C1118.78 1283.73 1122.38 1284.8 1126.38 1285.6C1130.38 1286.27 1134.44 1286.6 1138.58 1286.6C1146.44 1286.6 1151.98 1285.07 1155.18 1282C1158.51 1278.8 1160.18 1273.53 1160.18 1266.2V1183.2H1192.38V1272.2C1192.38 1285.67 1188.38 1296 1180.38 1303.2C1172.38 1310.4 1160.64 1314 1145.18 1314ZM1231.86 1312V1183.2H1326.86V1208H1264.06V1235H1319.46V1260.2H1264.06V1287.2H1326.86V1312H1231.86ZM1427.41 1314C1404.87 1314 1387.67 1308.27 1375.81 1296.8C1364.07 1285.2 1358.21 1269.13 1358.21 1248.6C1358.21 1227.13 1363.94 1210.53 1375.41 1198.8C1387.01 1187.07 1404.27 1181.2 1427.21 1181.2C1435.07 1181.2 1442.07 1181.8 1448.21 1183C1454.47 1184.2 1460.47 1185.8 1466.21 1187.8V1216C1454.61 1211.2 1442.41 1208.8 1429.61 1208.8C1416.27 1208.8 1406.47 1212 1400.21 1218.4C1394.07 1224.8 1391.01 1234.87 1391.01 1248.6C1391.01 1261.67 1394.27 1271.27 1400.81 1277.4C1407.34 1283.53 1417.07 1286.6 1430.01 1286.6C1436.27 1286.6 1442.47 1286.07 1448.61 1285C1454.74 1283.8 1460.67 1282 1466.41 1279.6V1308C1460.81 1309.87 1454.87 1311.33 1448.61 1312.4C1442.34 1313.47 1435.27 1314 1427.41 1314ZM1532.52 1312V1208H1494.72V1183.2H1602.52V1208H1564.72V1312H1532.52Z" fill="#E1E1E1" fill-opacity="0.05"/>
<path d="M678.2 1467V1338.2H741.6C751.867 1338.2 760.333 1340.27 767 1344.4C773.667 1348.4 778.6 1353.87 781.8 1360.8C785.133 1367.73 786.8 1375.53 786.8 1384.2C786.8 1393 784.933 1400.8 781.2 1407.6C777.467 1414.4 772.133 1419.73 765.2 1423.6C758.4 1427.33 750.267 1429.2 740.8 1429.2H710.4V1467H678.2ZM710.4 1404.4H733.6C740.4 1404.4 745.467 1402.53 748.8 1398.8C752.267 1395.07 754 1390.13 754 1384C754 1377.33 752.4 1372.2 749.2 1368.6C746.133 1364.87 741.267 1363 734.6 1363H710.4V1404.4ZM819.489 1467V1338.2H883.889C899.089 1338.2 910.289 1342.2 917.489 1350.2C924.689 1358.2 928.289 1368.93 928.289 1382.4C928.289 1391.07 926.089 1398.67 921.689 1405.2C917.289 1411.73 911.289 1416.6 903.689 1419.8C905.556 1421.27 907.022 1422.93 908.089 1424.8C909.289 1426.53 910.556 1429 911.889 1432.2L927.089 1467H893.489L879.089 1434.2C877.889 1431.4 876.356 1429.4 874.489 1428.2C872.622 1426.87 869.956 1426.2 866.489 1426.2H851.689V1467H819.489ZM851.689 1401.4H875.489C881.756 1401.4 886.622 1399.87 890.089 1396.8C893.689 1393.6 895.489 1388.8 895.489 1382.4C895.489 1369.47 889.289 1363 876.889 1363H851.689V1401.4ZM1021.95 1469C1001.02 1469 985.088 1463.67 974.155 1453C963.221 1442.33 957.755 1425.73 957.755 1403.2C957.755 1379.33 963.221 1362.2 974.155 1351.8C985.088 1341.4 1001.02 1336.2 1021.95 1336.2C1042.89 1336.2 1058.82 1341.4 1069.75 1351.8C1080.69 1362.2 1086.15 1379.33 1086.15 1403.2C1086.15 1425.73 1080.69 1442.33 1069.75 1453C1058.82 1463.67 1042.89 1469 1021.95 1469ZM1021.95 1441.6C1032.75 1441.6 1040.62 1438.53 1045.55 1432.4C1050.62 1426.13 1053.15 1416.4 1053.15 1403.2C1053.15 1388.8 1050.62 1378.67 1045.55 1372.8C1040.62 1366.8 1032.75 1363.8 1021.95 1363.8C1011.02 1363.8 1003.02 1366.8 997.955 1372.8C993.021 1378.67 990.555 1388.8 990.555 1403.2C990.555 1416.4 993.021 1426.13 997.955 1432.4C1003.02 1438.53 1011.02 1441.6 1021.95 1441.6ZM1144.18 1469C1138.71 1469 1133.44 1468.6 1128.38 1467.8C1123.44 1467.13 1118.84 1466 1114.58 1464.4V1437.4C1117.78 1438.73 1121.38 1439.8 1125.38 1440.6C1129.38 1441.27 1133.44 1441.6 1137.58 1441.6C1145.44 1441.6 1150.98 1440.07 1154.18 1437C1157.51 1433.8 1159.18 1428.53 1159.18 1421.2V1338.2H1191.38V1427.2C1191.38 1440.67 1187.38 1451 1179.38 1458.2C1171.38 1465.4 1159.64 1469 1144.18 1469ZM1230.86 1467V1338.2H1325.86V1363H1263.06V1390H1318.46V1415.2H1263.06V1442.2H1325.86V1467H1230.86ZM1426.41 1469C1403.87 1469 1386.67 1463.27 1374.81 1451.8C1363.07 1440.2 1357.21 1424.13 1357.21 1403.6C1357.21 1382.13 1362.94 1365.53 1374.41 1353.8C1386.01 1342.07 1403.27 1336.2 1426.21 1336.2C1434.07 1336.2 1441.07 1336.8 1447.21 1338C1453.47 1339.2 1459.47 1340.8 1465.21 1342.8V1371C1453.61 1366.2 1441.41 1363.8 1428.61 1363.8C1415.27 1363.8 1405.47 1367 1399.21 1373.4C1393.07 1379.8 1390.01 1389.87 1390.01 1403.6C1390.01 1416.67 1393.27 1426.27 1399.81 1432.4C1406.34 1438.53 1416.07 1441.6 1429.01 1441.6C1435.27 1441.6 1441.47 1441.07 1447.61 1440C1453.74 1438.8 1459.67 1437 1465.41 1434.6V1463C1459.81 1464.87 1453.87 1466.33 1447.61 1467.4C1441.34 1468.47 1434.27 1469 1426.41 1469ZM1531.52 1467V1363H1493.72V1338.2H1601.52V1363H1563.72V1467H1531.52Z" fill="#E1E1E1" fill-opacity="0.05"/>
<g filter="url(#filter3_f_83_196)">
<circle cx="1398" cy="306" r="121" fill="#DB75FF"/>
</g>
</g>
<defs>
<filter id="filter0_f_83_196" x="-579" y="136" width="1358" height="1358" filterUnits="userSpaceOnUse" color-interpolation-filters="sRGB">
<feFlood flood-opacity="0" result="BackgroundImageFix"/>
<feBlend mode="normal" in="SourceGraphic" in2="BackgroundImageFix" result="shape"/>
<feGaussianBlur stdDeviation="250" result="effect1_foregroundBlur_83_196"/>
</filter>
<filter id="filter1_f_83_196" x="604" y="114" width="1104" height="1104" filterUnits="userSpaceOnUse" color-interpolation-filters="sRGB">
<feFlood flood-opacity="0" result="BackgroundImageFix"/>
<feBlend mode="normal" in="SourceGraphic" in2="BackgroundImageFix" result="shape"/>
<feGaussianBlur stdDeviation="250" result="effect1_foregroundBlur_83_196"/>
</filter>
<filter id="filter2_f_83_196" x="97" y="2950" width="1242" height="1242" filterUnits="userSpaceOnUse" color-interpolation-filters="sRGB">
<feFlood flood-opacity="0" result="BackgroundImageFix"/>
<feBlend mode="normal" in="SourceGraphic" in2="BackgroundImageFix" result="shape"/>
<feGaussianBlur stdDeviation="250" result="effect1_foregroundBlur_83_196"/>
</filter>
<filter id="filter3_f_83_196" x="777" y="-315" width="1242" height="1242" filterUnits="userSpaceOnUse" color-interpolation-filters="sRGB">
<feFlood flood-opacity="0" result="BackgroundImageFix"/>
<feBlend mode="normal" in="SourceGraphic" in2="BackgroundImageFix" result="shape"/>
<feGaussianBlur stdDeviation="250" result="effect1_foregroundBlur_83_196"/>
</filter>
<linearGradient id="paint0_linear_83_196" x1="720" y1="-38.0391" x2="720" y2="4328" gradientUnits="userSpaceOnUse">
<stop stop-color="#162C41"/>
<stop offset="1" stop-color="#21405D"/>
</linearGradient>
<clipPath id="clip0_83_196">
<rect width="1440" height="4328" fill="white"/>
</clipPath>
</defs>
</svg>
