<svg width="24" height="24" viewBox="0 0 24 24" fill="none" xmlns="http://www.w3.org/2000/svg">
<path d="M16.4 12C16.4 12.1404 16.2551 12.5471 15.3774 12.9782C14.5648 13.3774 13.372 13.6527 12 13.6527V15.6527C13.6103 15.6527 15.1175 15.3342 16.2593 14.7733C17.3361 14.2443 18.4 13.3247 18.4 12H16.4ZM12 13.6527C10.628 13.6527 9.43516 13.3774 8.6225 12.9782C7.74488 12.5471 7.59998 12.1404 7.59998 12H5.59998C5.59998 13.3247 6.6639 14.2443 7.7407 14.7733C8.88246 15.3342 10.3897 15.6527 12 15.6527V13.6527ZM16.4 12V16.5474H18.4V12H16.4ZM5.59998 12V16.5474H7.59998V12H5.59998ZM16.4 16.5474C16.4 16.6878 16.2551 17.0944 15.3774 17.5256C14.5648 17.9248 13.372 18.2 12 18.2V20.2C13.6103 20.2 15.1175 19.8815 16.2593 19.3207C17.3361 18.7917 18.4 17.8721 18.4 16.5474H16.4ZM12 18.2C10.628 18.2 9.43516 17.9248 8.6225 17.5256C7.74488 17.0944 7.59998 16.6878 7.59998 16.5474H5.59998C5.59998 17.8721 6.6639 18.7917 7.7407 19.3207C8.88246 19.8815 10.3897 20.2 12 20.2V18.2ZM16.4 7.45268C16.4 7.59303 16.2551 7.99971 15.3774 8.43082C14.5648 8.83002 13.372 9.10531 12 9.10531V11.1053C13.6103 11.1053 15.1175 10.7868 16.2593 10.2259C17.3361 9.69698 18.4 8.77734 18.4 7.45268H16.4ZM12 9.10531C10.628 9.10531 9.43516 8.83002 8.6225 8.43082C7.74488 7.99971 7.59998 7.59303 7.59998 7.45268H5.59998C5.59998 8.77734 6.6639 9.69698 7.7407 10.2259C8.88246 10.7868 10.3897 11.1053 12 11.1053V9.10531ZM7.59998 7.45268C7.59998 7.31233 7.74488 6.90565 8.6225 6.47454C9.43516 6.07534 10.628 5.80005 12 5.80005V3.80005C10.3897 3.80005 8.88246 4.11857 7.7407 4.67943C6.6639 5.20838 5.59998 6.12802 5.59998 7.45268H7.59998ZM12 5.80005C13.372 5.80005 14.5648 6.07534 15.3774 6.47454C16.2551 6.90565 16.4 7.31233 16.4 7.45268H18.4C18.4 6.12802 17.3361 5.20838 16.2593 4.67943C15.1175 4.11857 13.6103 3.80005 12 3.80005V5.80005ZM16.4 7.45268V12H18.4V7.45268H16.4ZM5.59998 7.45268V12H7.59998V7.45268H5.59998Z" fill="#BDBDBD"/>
</svg>
