<svg width="20" height="20" viewBox="0 0 20 20" fill="none" xmlns="http://www.w3.org/2000/svg">
<path d="M16.75 9.5C16.75 9.08579 16.4142 8.75 16 8.75C15.5858 8.75 15.25 9.08579 15.25 9.5H16.75ZM4.75 9.5C4.75 9.08579 4.41421 8.75 4 8.75C3.58579 8.75 3.25 9.08579 3.25 9.5H4.75ZM5.63803 15.173L5.97852 14.5048L5.97852 14.5048L5.63803 15.173ZM4.32698 13.862L3.65873 14.2025L3.65873 14.2025L4.32698 13.862ZM15.673 13.862L15.0048 13.5215L15.0048 13.5215L15.673 13.862ZM14.362 15.173L14.7025 15.8413L14.7025 15.8413L14.362 15.173ZM10.75 4.5C10.75 4.08579 10.4142 3.75 10 3.75C9.58579 3.75 9.25 4.08579 9.25 4.5H10.75ZM10 12L9.46967 12.5303C9.76256 12.8232 10.2374 12.8232 10.5303 12.5303L10 12ZM12.5303 10.5303C12.8232 10.2374 12.8232 9.76256 12.5303 9.46967C12.2374 9.17678 11.7626 9.17678 11.4697 9.46967L12.5303 10.5303ZM8.53033 9.46967C8.23744 9.17678 7.76256 9.17678 7.46967 9.46967C7.17678 9.76256 7.17678 10.2374 7.46967 10.5303L8.53033 9.46967ZM15.25 9.5V10.7H16.75V9.5H15.25ZM11.2 14.75H8.8V16.25H11.2V14.75ZM4.75 10.7V9.5H3.25V10.7H4.75ZM8.8 14.75C7.94755 14.75 7.35331 14.7494 6.89068 14.7116C6.4368 14.6745 6.17604 14.6054 5.97852 14.5048L5.29754 15.8413C5.74175 16.0676 6.22189 16.162 6.76853 16.2066C7.30641 16.2506 7.9723 16.25 8.8 16.25V14.75ZM3.25 10.7C3.25 11.5277 3.24942 12.1936 3.29336 12.7315C3.33803 13.2781 3.43238 13.7582 3.65873 14.2025L4.99524 13.5215C4.8946 13.324 4.82546 13.0632 4.78838 12.6093C4.75058 12.1467 4.75 11.5525 4.75 10.7H3.25ZM5.97852 14.5048C5.55516 14.289 5.21095 13.9448 4.99524 13.5215L3.65873 14.2025C4.01825 14.9081 4.59193 15.4817 5.29754 15.8413L5.97852 14.5048ZM15.25 10.7C15.25 11.5525 15.2494 12.1467 15.2116 12.6093C15.1745 13.0632 15.1054 13.324 15.0048 13.5215L16.3413 14.2025C16.5676 13.7582 16.662 13.2781 16.7066 12.7315C16.7506 12.1936 16.75 11.5277 16.75 10.7H15.25ZM11.2 16.25C12.0277 16.25 12.6936 16.2506 13.2315 16.2066C13.7781 16.162 14.2582 16.0676 14.7025 15.8413L14.0215 14.5048C13.824 14.6054 13.5632 14.6745 13.1093 14.7116C12.6467 14.7494 12.0525 14.75 11.2 14.75V16.25ZM15.0048 13.5215C14.789 13.9448 14.4448 14.289 14.0215 14.5048L14.7025 15.8413C15.4081 15.4817 15.9817 14.9081 16.3413 14.2025L15.0048 13.5215ZM9.25 4.5V12H10.75V4.5H9.25ZM10.5303 12.5303L12.5303 10.5303L11.4697 9.46967L9.46967 11.4697L10.5303 12.5303ZM10.5303 11.4697L8.53033 9.46967L7.46967 10.5303L9.46967 12.5303L10.5303 11.4697Z" fill="#949494"/>
</svg>
