<svg width="22" height="19" viewBox="0 0 22 19" fill="none" xmlns="http://www.w3.org/2000/svg">
<path d="M18.48 17.42L18.9339 18.311L18.48 17.42ZM20.497 15.403L21.388 15.857L20.497 15.403ZM1.50305 15.403L0.61204 15.857L1.50305 15.403ZM3.52004 17.42L3.06605 18.311L3.52004 17.42ZM3.52004 1.50305L3.06605 0.61204L3.52004 1.50305ZM1.50305 3.52004L0.61204 3.06605L1.50305 3.52004ZM18.48 1.50305L18.9339 0.61204L18.48 1.50305ZM20.497 3.52004L21.388 3.06605L20.497 3.52004ZM16.2145 4.0141C16.6741 3.70775 17.2949 3.83192 17.6013 4.29145C17.9076 4.75098 17.7835 5.37185 17.3239 5.6782L16.2145 4.0141ZM13.5602 6.98554L13.0055 6.15349L13.5602 6.98554ZM4.67607 5.6782C4.21654 5.37185 4.09237 4.75098 4.39872 4.29145C4.70507 3.83192 5.32594 3.70775 5.78547 4.0141L4.67607 5.6782ZM8.43985 6.98554L7.88515 7.81759L8.43985 6.98554ZM12.8462 2H8.38462V0H12.8462V2ZM2 8.38462V10.5385H0V8.38462H2ZM8.38462 16.9231H12.8462V18.9231H8.38462V16.9231ZM20 10.5385V8.38462H22V10.5385H20ZM12.8462 16.9231C14.1493 16.9231 15.2746 16.9226 16.1969 16.8623C17.1541 16.7998 17.7318 16.6789 18.026 16.529L18.9339 18.311C18.2408 18.6642 17.294 18.7949 16.3274 18.8581C15.3258 18.9235 14.1278 18.9231 12.8462 18.9231V16.9231ZM22 10.5385C22 11.8144 22.0008 12.8315 21.9338 13.6513C21.8659 14.4827 21.7233 15.1989 21.388 15.857L19.6059 14.949C19.7737 14.6199 19.8826 14.1962 19.9404 13.4884C19.9992 12.7689 20 11.8474 20 10.5385H22ZM18.026 16.529C18.7062 16.1824 19.2593 15.6293 19.6059 14.949L21.388 15.857C20.8496 16.9136 19.9905 17.7727 18.9339 18.311L18.026 16.529ZM2 10.5385C2 11.8474 2.00078 12.7689 2.05956 13.4884C2.11739 14.1962 2.22633 14.6199 2.39405 14.949L0.61204 15.857C0.276716 15.1989 0.134134 14.4827 0.0662022 13.6513C-0.000778198 12.8315 0 11.8144 0 10.5385H2ZM8.38462 18.9231C7.10869 18.9231 6.0916 18.9239 5.27181 18.8569C4.44034 18.7889 3.72416 18.6464 3.06605 18.311L3.97403 16.529C4.30321 16.6967 4.72689 16.8057 5.43467 16.8635C6.15413 16.9223 7.07569 16.9231 8.38462 16.9231V18.9231ZM2.39405 14.949C2.74067 15.6293 3.29375 16.1824 3.97403 16.529L3.06605 18.311C2.00945 17.7727 1.15041 16.9136 0.61204 15.857L2.39405 14.949ZM8.38462 2C7.07569 2 6.15413 2.00078 5.43467 2.05956C4.72689 2.11739 4.30321 2.22633 3.97403 2.39405L3.06605 0.61204C3.72416 0.276716 4.44034 0.134135 5.27181 0.0662019C6.0916 -0.000777721 7.10869 0 8.38462 0V2ZM0 8.38462C0 7.10869 -0.000778198 6.0916 0.0662022 5.27181C0.134134 4.44034 0.276716 3.72416 0.61204 3.06605L2.39405 3.97403C2.22633 4.30321 2.11739 4.72689 2.05956 5.43467C2.00078 6.15413 2 7.07569 2 8.38462H0ZM3.97403 2.39405C3.29376 2.74067 2.74067 3.29376 2.39405 3.97403L0.61204 3.06605C1.15041 2.00945 2.00945 1.15041 3.06605 0.61204L3.97403 2.39405ZM12.8462 0C14.1278 0 15.3258 -0.00045836 16.3274 0.0650106C17.294 0.128201 18.2408 0.258866 18.9339 0.61204L18.026 2.39405C17.7318 2.24418 17.1541 2.12332 16.1969 2.06075C15.2746 2.00046 14.1493 2 12.8462 2V0ZM20 8.38462C20 7.07569 19.9992 6.15413 19.9404 5.43467C19.8826 4.72689 19.7737 4.30321 19.6059 3.97403L21.388 3.06605C21.7233 3.72416 21.8659 4.44034 21.9338 5.27181C22.0008 6.0916 22 7.10869 22 8.38462H20ZM18.9339 0.61204C19.9905 1.15041 20.8496 2.00945 21.388 3.06605L19.6059 3.97403C19.2593 3.29376 18.7062 2.74067 18.026 2.39405L18.9339 0.61204ZM17.3239 5.6782L14.1149 7.81759L13.0055 6.15349L16.2145 4.0141L17.3239 5.6782ZM5.78547 4.0141L8.99455 6.15349L7.88515 7.81759L4.67607 5.6782L5.78547 4.0141ZM14.1149 7.81759C13.5125 8.21918 12.9951 8.56572 12.5382 8.8034C12.0597 9.05236 11.5674 9.2265 11 9.2265V7.2265C11.1313 7.2265 11.2987 7.19381 11.6152 7.02912C11.9535 6.85315 12.3669 6.57921 13.0055 6.15349L14.1149 7.81759ZM8.99455 6.15349C9.63313 6.57921 10.0465 6.85315 10.3848 7.02912C10.7013 7.19381 10.8687 7.2265 11 7.2265V9.2265C10.4326 9.2265 9.94034 9.05236 9.46176 8.8034C9.00487 8.56572 8.48753 8.21918 7.88515 7.81759L8.99455 6.15349Z" fill="#E9E9E9"/>
</svg>
