<svg width="20" height="20" viewBox="0 0 20 20" fill="none" xmlns="http://www.w3.org/2000/svg">
<path d="M4.50002 17.5001C4.35835 17.5026 4.21668 17.4784 4.08335 17.4284L10.795 10.7142L13.0167 12.9384L5.30418 17.2717C5.05991 17.415 4.78313 17.4936 4.50002 17.5001ZM3.53001 16.9459C3.39358 16.6988 3.32568 16.4197 3.33335 16.1376V3.88339C3.33222 3.69737 3.36034 3.51233 3.41668 3.33505L10.2775 10.1976L3.52751 16.9476L3.53001 16.9459ZM13.6792 12.5642L11.3117 10.1984L13.9225 7.58839L16.2417 8.89088C16.6867 9.09088 16.985 9.52005 17.015 10.0067C17.0002 10.2458 16.9203 10.4763 16.7838 10.6731C16.6473 10.87 16.4596 11.0257 16.2408 11.1234L13.6792 12.5642ZM10.795 9.67839L3.84501 2.72922C4.03585 2.58755 4.26668 2.51255 4.50418 2.51172C4.78418 2.52172 5.05752 2.60089 5.30001 2.74255L13.2592 7.21589L10.7958 9.67839H10.795Z" fill="#BDBDBD"/>
</svg>
